<?xml version="1.0" standalone="no"?>
<!DOCTYPE svg PUBLIC "-//W3C//DTD SVG 20010904//EN"
 "http://www.w3.org/TR/2001/REC-SVG-20010904/DTD/svg10.dtd">
<svg version="1.0" xmlns="http://www.w3.org/2000/svg"
 width="300.000000pt" height="300.000000pt" viewBox="0 0 300.000000 300.000000"
 preserveAspectRatio="xMidYMid meet">
<metadata>
Created by potrace 1.11, written by Peter Selinger 2001-2013
</metadata>
<g transform="translate(0.000000,300.000000) scale(0.100000,-0.100000)"
fill="#000000" stroke="none">
<path d="M1374 2939 c-4 -8 93 -58 266 -136 l55 -25 -98 -49 c-54 -27 -103
-49 -109 -49 -5 0 -80 30 -166 66 -192 81 -191 81 -174 63 7 -7 82 -43 168
-80 171 -73 171 -74 70 -103 -39 -11 -48 -9 -166 36 -69 27 -134 53 -145 58
-36 16 -65 22 -65 12 0 -6 15 -15 33 -21 117 -40 277 -108 277 -116 0 -6 -27
-23 -61 -38 l-60 -27 -72 26 c-40 14 -92 32 -117 40 -25 8 -54 19 -65 23 -63
26 -78 31 -94 31 -21 0 -33 -22 -25 -45 6 -14 38 -28 189 -82 70 -25 101 -43
76 -43 -7 0 -36 -12 -64 -26 l-51 -25 -71 21 c-38 12 -79 25 -90 30 -29 12
-238 80 -248 80 -5 0 -5 -4 -2 -10 3 -5 91 -37 195 -71 144 -47 189 -66 193
-80 4 -16 12 -18 48 -15 41 4 105 -13 296 -81 42 -14 42 -15 39 -56 -2 -23 -4
-54 -5 -69 -1 -20 -6 -28 -19 -28 -24 0 -42 -19 -42 -46 0 -17 -9 -25 -35 -34
-19 -6 -61 -31 -92 -54 -107 -78 -176 -165 -209 -261 -10 -30 -23 -55 -29 -55
-15 0 -60 -41 -74 -69 -29 -55 -8 -127 45 -153 23 -11 27 -20 30 -63 5 -70 38
-222 89 -410 24 -88 47 -176 50 -196 21 -115 120 -161 328 -154 53 2 103 7
110 11 9 6 9 4 1 -7 -6 -8 -10 -29 -9 -46 2 -25 -2 -33 -15 -33 -37 0 -157
-44 -206 -75 -81 -52 -129 -154 -104 -220 10 -26 7 -32 -44 -82 -57 -57 -106
-140 -106 -180 0 -22 3 -23 86 -23 l86 0 40 45 c22 25 43 45 46 45 4 0 20 -20
35 -45 l29 -45 296 0 297 0 39 61 c26 40 44 58 53 54 30 -11 71 -51 87 -83
l16 -32 94 0 93 0 -3 33 c-6 46 -59 149 -97 187 -17 17 -49 41 -69 52 -36 20
-36 22 -33 73 5 89 -36 156 -121 199 -63 31 -112 44 -199 51 -38 3 -72 9 -76
13 -4 4 -9 27 -13 52 l-6 45 103 34 c56 18 117 40 136 47 l33 14 -6 117 c-4
65 -9 132 -11 148 -7 56 -15 159 -21 270 -11 239 -19 310 -46 420 -52 213
-180 353 -325 358 -37 2 -50 7 -58 22 -6 11 -21 21 -33 23 -12 2 -22 6 -22 10
-1 4 -5 26 -9 50 -7 33 -5 42 5 42 19 0 18 16 -1 23 -10 4 -14 20 -13 51 l1
45 51 -21 c82 -33 136 -44 146 -29 17 28 -2 49 -68 74 -37 14 -80 29 -95 33
-32 7 -34 11 -40 72 -3 29 0 45 8 48 6 3 89 -25 184 -62 95 -36 175 -63 178
-60 9 9 12 8 -172 78 -93 36 -171 70 -172 75 -2 5 19 18 47 30 l50 21 153 -65
c83 -35 167 -71 185 -79 22 -9 32 -10 30 -2 -3 8 -264 127 -333 151 -11 4 174
97 194 97 13 0 40 -12 244 -109 71 -33 127 -55 125 -49 -2 6 -83 49 -179 95
-97 46 -175 89 -177 98 -2 9 -15 15 -33 15 -32 0 -50 7 -237 98 -67 32 -125
55 -128 51z m-499 -339 c3 -6 -1 -7 -9 -4 -18 7 -21 14 -7 14 6 0 13 -4 16
-10z m40 -18 c-3 -3 -11 0 -18 7 -9 10 -8 11 6 5 10 -3 15 -9 12 -12z m45 -12
c8 -5 11 -10 5 -10 -5 0 -17 5 -25 10 -8 5 -10 10 -5 10 6 0 17 -5 25 -10z
m100 -36 c0 -2 -7 -4 -15 -4 -8 0 -15 4 -15 10 0 5 7 7 15 4 8 -4 15 -8 15
-10z m40 -14 c8 -5 11 -10 5 -10 -5 0 -17 5 -25 10 -8 5 -10 10 -5 10 6 0 17
-5 25 -10z m247 -5 c7 -24 -13 -36 -43 -25 -28 11 -28 12 -9 26 21 16 46 15
52 -1z m-92 -55 c3 -6 -1 -7 -9 -4 -18 7 -21 14 -7 14 6 0 13 -4 16 -10z m8
-27 l77 -26 0 -50 c0 -43 -2 -48 -17 -42 -10 4 -40 13 -68 21 -27 8 -59 19
-70 24 -11 5 -44 16 -73 25 -29 10 -51 19 -49 21 8 8 102 53 112 54 6 0 45
-12 88 -27z m242 -41 c-3 -3 -11 0 -18 7 -9 10 -8 11 6 5 10 -3 15 -9 12 -12z
m56 -20 c-7 -2 -18 1 -23 6 -8 8 -4 9 13 5 13 -4 18 -8 10 -11z m-26 -20 c-3
-3 -11 0 -18 7 -9 10 -8 11 6 5 10 -3 15 -9 12 -12z"/>
</g>
</svg>
